<svg xmlns="http://www.w3.org/2000/svg" xmlns:xlink="http://www.w3.org/1999/xlink" viewBox="0 0 149.9 162.2"><defs><style>.cls-1{fill:none;}.cls-2{clip-path:url(#clip-path);}</style><clipPath id="clip-path" transform="translate(0 0)"><path class="cls-1" d="M140.89,57.73l8.81-2.53A50.54,50.54,0,0,0,149.3,43l-9-1.92a40.51,40.51,0,0,0-1.58-5.2l6.36-6.58A51.31,51.31,0,0,0,138.66,19l-8.72,2.82a43.67,43.67,0,0,0-4-3.72l2.22-8.89a50.9,50.9,0,0,0-10.77-5.73l-6.14,6.8c-1.28-.38-2.58-.71-3.91-1L106,9,103.46.2A50.44,50.44,0,0,0,91.28.59l-1.93,9a40.51,40.51,0,0,0-5.2,1.58L77.56,4.79a51.24,51.24,0,0,0-10.35,6.45L70,20a39.86,39.86,0,0,0-3.72,4l-8.89-2.22a51.11,51.11,0,0,0-5.73,10.77l6.8,6.14c-.38,1.28-.72,2.58-1,3.91q-.13.69-.24,1.38l-8.82,2.53a51,51,0,0,0,.4,12.18l9,1.93a42.05,42.05,0,0,0,1.59,5.19l-6.36,6.59A51,51,0,0,0,59.5,82.68l8.72-2.81a42.39,42.39,0,0,0,4,3.72L70,92.47a50.69,50.69,0,0,0,10.77,5.74l6.14-6.8c1.27.38,2.58.71,3.91,1,.46.09.92.16,1.38.24l2.52,8.81a50,50,0,0,0,12.19-.39l1.93-9A43.28,43.28,0,0,0,114,90.49l6.59,6.36a51.24,51.24,0,0,0,10.35-6.45l-2.81-8.72a42.39,42.39,0,0,0,3.72-4l8.88,2.22a50.45,50.45,0,0,0,5.73-10.77L139.67,63c.38-1.28.71-2.58,1-3.91C140.74,58.65,140.81,58.19,140.89,57.73Zm-8.08-.19a34.39,34.39,0,1,1-27-40.45A34.41,34.41,0,0,1,132.81,57.54Z"/></clipPath></defs><g id="Layer_2" data-name="Layer 2"><g id="Layer_1-2" data-name="Layer 1"><g class="cls-2"><rect x="95.54" width="54.35" height="101.64"/></g><path d="M0,101.73c2.49,0,5-.1,7.47-.12s4.72,0,7.22,0v1.48c0,5.75,0,11.49,0,17.23a27.48,27.48,0,0,0,54.61,4.06,24.46,24.46,0,0,0,.32-4.1q0-21.34,0-42.68V76.08H84.19c0,.53.13,1,.13,1.57,0,14.19,0,28.38-.09,42.56a41.75,41.75,0,0,1-33.62,41.05c-14,2.82-26.49-.72-37.07-10.36A41.07,41.07,0,0,1,.3,124.79c-.12-1-.2-2.06-.3-3.08Z" transform="translate(0 0)"/><path d="M0,6.11H14.61V20.84H0Z" transform="translate(0 0)"/><path d="M37.48,6.23v14.5H23.09V6.23Z" transform="translate(0 0)"/><path d="M46.23,20.75V6.23H60.67V20.75Z" transform="translate(0 0)"/><path d="M69.72,6.19H84.13V20.75H69.72Z" transform="translate(0 0)"/><path d="M37.5,29.71V44.18H23.1V29.71Z" transform="translate(0 0)"/><path d="M46.24,29.69H60.68V44.18H46.24Z" transform="translate(0 0)"/><path d="M69.69,44.21V29.7H84.12V44.21Z" transform="translate(0 0)"/><path d="M46.22,67.68V53.17H60.66V67.68Z" transform="translate(0 0)"/><path d="M84.15,53.19V67.66H69.74V53.19Z" transform="translate(0 0)"/></g></g></svg>